<svg width="102" height="102" viewBox="0 0 102 102" fill="none" xmlns="http://www.w3.org/2000/svg">
<path fill-rule="evenodd" clip-rule="evenodd" d="M83.6704 22.109C85.7167 23.8384 86.9999 26.3249 86.9999 29.0881L86.9999 57.0002C86.9999 73.5687 73.5684 87.0002 56.9999 87.0002H29.0878C26.1865 87.0002 23.5757 85.7924 21.7598 83.8665L9.47241 72.0551H29.0878V29.0881L71.1208 29.0881V10.4067L83.6704 22.109Z" fill="black"/>
<path d="M86.9999 29.0881H85.4999H86.9999ZM83.6704 22.109L82.6474 23.2061C82.6653 23.2227 82.6835 23.2389 82.7022 23.2547L83.6704 22.109ZM86.9999 57.0002H88.4999H86.9999ZM29.0878 87.0002L29.0878 88.5002H29.0878V87.0002ZM21.7598 83.8665L22.8512 82.8375C22.8343 82.8196 22.8171 82.8021 22.7993 82.7851L21.7598 83.8665ZM9.47241 72.0551V70.5551C8.86032 70.5551 8.30963 70.927 8.08099 71.4948C7.85235 72.0626 7.99163 72.7123 8.4329 73.1365L9.47241 72.0551ZM29.0878 72.0551V73.5551C29.9162 73.5551 30.5878 72.8835 30.5878 72.0551H29.0878ZM29.0878 29.0881V27.5881C28.69 27.5881 28.3084 27.7461 28.0271 28.0274C27.7458 28.3087 27.5878 28.6902 27.5878 29.0881H29.0878ZM71.1208 29.0881V30.5881C71.5186 30.5881 71.9001 30.43 72.1814 30.1487C72.4627 29.8674 72.6208 29.4859 72.6208 29.0881H71.1208ZM71.1208 10.4067L72.1438 9.30969C71.707 8.90243 71.0703 8.79303 70.5226 9.03115C69.975 9.26928 69.6208 9.80957 69.6208 10.4067H71.1208ZM88.4999 29.0881C88.4999 25.8425 86.9897 22.9504 84.6386 20.9634L82.7022 23.2547C84.4436 24.7265 85.4999 26.8072 85.4999 29.0881H88.4999ZM88.4999 57.0002L88.4999 29.0881H85.4999L85.4999 57.0002H88.4999ZM56.9999 88.5002C74.3969 88.5002 88.4999 74.3971 88.4999 57.0002H85.4999C85.4999 72.7403 72.74 85.5002 56.9999 85.5002V88.5002ZM29.0878 88.5002H56.9999V85.5002H29.0878V88.5002ZM20.6685 84.8955C22.7611 87.1149 25.7637 88.5002 29.0878 88.5002L29.0878 85.5002C26.6092 85.5002 24.3903 84.4699 22.8512 82.8375L20.6685 84.8955ZM8.4329 73.1365L20.7203 84.9479L22.7993 82.7851L10.5119 70.9737L8.4329 73.1365ZM29.0878 70.5551H9.47241V73.5551H29.0878V70.5551ZM27.5878 29.0881V72.0551H30.5878V29.0881H27.5878ZM71.1208 27.5881L29.0878 27.5881V30.5881L71.1208 30.5881V27.5881ZM69.6208 10.4067V29.0881H72.6208V10.4067H69.6208ZM84.6934 21.012L72.1438 9.30969L70.0978 11.5038L82.6474 23.2061L84.6934 21.012Z" fill="black"/>
<rect x="1.99976" y="2" width="80" height="80" rx="20" fill="white" stroke="black" stroke-width="3"/>
<path d="M32.6325 56H27.0075L37.2489 26.9091H43.7546L54.0103 56H48.3853L40.6154 32.875H40.3881L32.6325 56ZM32.8171 44.5938H48.158V48.8267H32.8171V44.5938Z" fill="black"/>
</svg>
