<svg width="102" height="84" viewBox="0 0 102 84" fill="none" xmlns="http://www.w3.org/2000/svg">
<path d="M30.2241 37.5C30.2241 23.969 41.1931 13 54.7241 13C68.2551 13 79.2241 23.969 79.2241 37.5V48H30.2241V37.5Z" fill="black" stroke="black" stroke-width="3"/>
<path fill-rule="evenodd" clip-rule="evenodd" d="M41.2 8.5C41.2 4.91015 38.2898 2 34.7 2H12C6.47715 2 2 6.47715 2 12V15V65V72C2 77.5229 6.47715 82 12 82H90C95.5229 82 100 77.5229 100 72V25C100 19.4772 95.5229 15 90 15H47.7C44.1101 15 41.2 12.0899 41.2 8.5Z" fill="white"/>
<path d="M12 3.5H34.7V0.5H12V3.5ZM3.5 15V12H0.5V15H3.5ZM3.5 65V15H0.5V65H3.5ZM3.5 72V65H0.5V72H3.5ZM90 80.5H12V83.5H90V80.5ZM98.5 25V72H101.5V25H98.5ZM47.7 16.5H90V13.5H47.7V16.5ZM47.7 13.5C44.9386 13.5 42.7 11.2614 42.7 8.5H39.7C39.7 12.9183 43.2817 16.5 47.7 16.5V13.5ZM0.5 72C0.5 78.3513 5.64873 83.5 12 83.5V80.5C7.30558 80.5 3.5 76.6944 3.5 72H0.5ZM101.5 25C101.5 18.6487 96.3513 13.5 90 13.5V16.5C94.6944 16.5 98.5 20.3056 98.5 25H101.5ZM34.7 3.5C37.4614 3.5 39.7 5.73858 39.7 8.5H42.7C42.7 4.08172 39.1183 0.5 34.7 0.5V3.5ZM90 83.5C96.3513 83.5 101.5 78.3513 101.5 72H98.5C98.5 76.6944 94.6944 80.5 90 80.5V83.5ZM12 0.5C5.64873 0.5 0.5 5.64873 0.5 12H3.5C3.5 7.30558 7.30558 3.5 12 3.5V0.5Z" fill="black"/>
<g clip-path="url(#clip0_279_13013)">
<circle cx="5" cy="5" r="5" transform="matrix(1 0 0 -1 8 16)" fill="white" stroke="black" stroke-width="1.5"/>
<path d="M11 9L15 13M15 9L11 13" stroke="black" stroke-width="1.5"/>
</g>
<path d="M45.9825 62.28C42.7158 62.28 40.2238 61.4773 38.5065 59.872C36.7891 58.2667 35.9305 55.9987 35.9305 53.068C35.9305 50.044 36.7705 47.7293 38.4505 46.124C40.1305 44.5 42.6318 43.688 45.9545 43.688C47.0745 43.688 48.0731 43.772 48.9505 43.94C49.8278 44.108 50.6678 44.3413 51.4705 44.64V49.232C49.8651 48.5227 48.1478 48.168 46.3185 48.168C44.6198 48.168 43.3598 48.56 42.5385 49.344C41.7171 50.1093 41.3065 51.3507 41.3065 53.068C41.3065 54.748 41.7358 55.9613 42.5945 56.708C43.4718 57.436 44.7318 57.8 46.3745 57.8C47.2705 57.8 48.1385 57.716 48.9785 57.548C49.8371 57.38 50.6865 57.1187 51.5265 56.764V61.384C50.7238 61.664 49.8745 61.8787 48.9785 62.028C48.1011 62.196 47.1025 62.28 45.9825 62.28ZM59.4063 62.28C58.1929 62.28 57.0449 62.1867 55.9623 62C54.8796 61.7947 53.9556 61.5147 53.1903 61.16V56.82C54.0303 57.212 54.9636 57.5293 55.9903 57.772C57.0169 58.0147 57.9783 58.136 58.8743 58.136C59.8076 58.136 60.5076 58.0613 60.9743 57.912C61.4596 57.744 61.7023 57.38 61.7023 56.82C61.7023 56.428 61.5623 56.12 61.2823 55.896C61.0209 55.672 60.6009 55.4667 60.0223 55.28C59.4623 55.0933 58.7249 54.86 57.8103 54.58C56.5969 54.188 55.6356 53.7587 54.9263 53.292C54.2169 52.8253 53.7036 52.256 53.3863 51.584C53.0876 50.912 52.9383 50.0907 52.9383 49.12C52.9383 47.3467 53.5636 46.0027 54.8143 45.088C56.0836 44.1547 57.9596 43.688 60.4423 43.688C61.4316 43.688 62.4489 43.772 63.4943 43.94C64.5583 44.108 65.4169 44.2947 66.0703 44.5V48.868C65.1929 48.5133 64.3529 48.2613 63.5503 48.112C62.7476 47.9627 61.9916 47.888 61.2823 47.888C60.4609 47.888 59.7609 47.9533 59.1823 48.084C58.6036 48.2147 58.3143 48.5507 58.3143 49.092C58.3143 49.5587 58.5569 49.904 59.0423 50.128C59.5463 50.3333 60.4329 50.604 61.7023 50.94C63.1769 51.332 64.2969 51.808 65.0623 52.368C65.8463 52.928 66.3783 53.5813 66.6583 54.328C66.9383 55.056 67.0783 55.8867 67.0783 56.82C67.0783 58.4627 66.4436 59.788 65.1743 60.796C63.9049 61.7853 61.9823 62.28 59.4063 62.28Z" fill="black"/>
<defs>
<clipPath id="clip0_279_13013">
<rect width="39.0185" height="15.1515" fill="white" transform="translate(2 5.03027)"/>
</clipPath>
</defs>
</svg>
