<svg width="79" height="78" viewBox="0 0 79 78" fill="none" xmlns="http://www.w3.org/2000/svg">
<g filter="url(#filter0_d_279_13807)">
<rect x="4.5" width="70" height="70" rx="5" fill="#B8A9FB"/>
<rect x="5" y="0.5" width="69" height="69" rx="4.5" stroke="#DDDDDD"/>
</g>
<path d="M39.538 65L39.538 35.0704M39.538 35.0704L39.6597 35M39.538 35.0704L39.4162 35M39.6597 35L65.5401 20.037M39.6597 35L39.5379 34.9296M39.6597 35L65.54 49.963M13.5801 20.0626L39.4162 35M39.4162 35L13.5801 49.9374M39.4162 35L39.5379 34.9296M39.5379 5V34.9296M53.1605 16.0362L53.6219 26.9103L62.7258 32.7032M49.1001 13.6887L39.4653 18.7256L30.0296 13.7927M62.7258 37.4868L53.6219 43.2797L53.177 53.7643M48.755 56.3209L39.4653 51.4645L30.3747 56.2169M25.7441 53.5397L25.3088 43.2797L16.584 37.728M16.584 32.462L25.3088 26.9103L25.7606 16.2609" stroke="white" stroke-width="2" stroke-linejoin="round"/>
<defs>
<filter id="filter0_d_279_13807" x="0.5" y="0" width="78" height="78" filterUnits="userSpaceOnUse" color-interpolation-filters="sRGB">
<feFlood flood-opacity="0" result="BackgroundImageFix"/>
<feColorMatrix in="SourceAlpha" type="matrix" values="0 0 0 0 0 0 0 0 0 0 0 0 0 0 0 0 0 0 127 0" result="hardAlpha"/>
<feOffset dy="4"/>
<feGaussianBlur stdDeviation="2"/>
<feComposite in2="hardAlpha" operator="out"/>
<feColorMatrix type="matrix" values="0 0 0 0 0 0 0 0 0 0 0 0 0 0 0 0 0 0 0.25 0"/>
<feBlend mode="normal" in2="BackgroundImageFix" result="effect1_dropShadow_279_13807"/>
<feBlend mode="normal" in="SourceGraphic" in2="effect1_dropShadow_279_13807" result="shape"/>
</filter>
</defs>
</svg>
